<svg xmlns="http://www.w3.org/2000/svg" viewBox="0 0 920 640" font-family="'SF Mono', Menlo, Consolas, monospace">
  <defs>
    <marker id="arrow" viewBox="0 0 10 10" refX="9" refY="5" markerWidth="8" markerHeight="8" orient="auto-start-reverse">
      <path d="M0,0 L10,5 L0,10 z" fill="#57606a"/>
    </marker>
    <marker id="arrowGreen" viewBox="0 0 10 10" refX="9" refY="5" markerWidth="8" markerHeight="8" orient="auto-start-reverse">
      <path d="M0,0 L10,5 L0,10 z" fill="#1a7f37"/>
    </marker>
    <marker id="arrowPurple" viewBox="0 0 10 10" refX="9" refY="5" markerWidth="8" markerHeight="8" orient="auto-start-reverse">
      <path d="M0,0 L10,5 L0,10 z" fill="#8250df"/>
    </marker>
  </defs>
  <rect x="0" y="0" width="920" height="640" fill="#ffffff"/>
  <text x="460" y="26" text-anchor="middle" font-size="18" font-weight="bold" fill="#1f2328">llm-ecosystem-demo &#8212; integration across five packages</text>

  <!-- StructuredOutputKit: PromptBuilder -->
  <rect x="40" y="60" width="230" height="60" rx="6" fill="#fff1e5" stroke="#bc4c00"/>
  <text x="155" y="84" text-anchor="middle" font-size="12" fill="#57606a">StructuredOutputKit</text>
  <text x="155" y="105" text-anchor="middle" font-size="13" fill="#1f2328">PromptBuilder</text>

  <!-- ProviderGatewayKit: LLMSession / ProviderRouter -->
  <rect x="345" y="60" width="230" height="60" rx="6" fill="#ddf4ff" stroke="#0969da"/>
  <text x="460" y="84" text-anchor="middle" font-size="12" fill="#57606a">ProviderGatewayKit</text>
  <text x="460" y="105" text-anchor="middle" font-size="13" fill="#1f2328">LLMSession + ProviderRouter</text>

  <!-- ScriptedProvider (this demo) -->
  <rect x="650" y="60" width="230" height="60" rx="6" fill="#f6f8fa" stroke="#d0d7de"/>
  <text x="765" y="84" text-anchor="middle" font-size="12" fill="#57606a">this demo</text>
  <text x="765" y="105" text-anchor="middle" font-size="13" fill="#1f2328">ScriptedProvider</text>

  <line x1="270" y1="90" x2="343" y2="90" stroke="#57606a" stroke-width="1.5" marker-end="url(#arrow)"/>
  <text x="306" y="80" text-anchor="middle" font-size="10.5" fill="#57606a">instructions</text>
  <line x1="575" y1="90" x2="648" y2="90" stroke="#57606a" stroke-width="1.5" marker-end="url(#arrow)"/>
  <text x="611" y="80" text-anchor="middle" font-size="10.5" fill="#57606a">request</text>

  <path d="M 765 120 C 765 170, 460 170, 460 122" fill="none" stroke="#1a7f37" stroke-width="1.8" marker-end="url(#arrowGreen)"/>
  <text x="612" y="150" text-anchor="middle" font-size="10.5" fill="#1a7f37">scripted reply text (real LLMResponse)</text>

  <!-- StructuredOutputKit: decode -->
  <rect x="345" y="190" width="230" height="60" rx="6" fill="#fff1e5" stroke="#bc4c00"/>
  <text x="460" y="214" text-anchor="middle" font-size="12" fill="#57606a">StructuredOutputKit</text>
  <text x="460" y="235" text-anchor="middle" font-size="13" fill="#1f2328">StructuredOutputDecoder</text>

  <path d="M 460 122 C 460 145, 460 168, 460 188" fill="none" stroke="#57606a" stroke-width="1.5" marker-end="url(#arrow)"/>

  <!-- TokenMeterKit -->
  <rect x="650" y="190" width="230" height="60" rx="6" fill="#fdf2f8" stroke="#bf3989"/>
  <text x="765" y="214" text-anchor="middle" font-size="12" fill="#57606a">TokenMeterKit</text>
  <text x="765" y="235" text-anchor="middle" font-size="13" fill="#1f2328">TokenMeter.record(_:for:)</text>

  <line x1="575" y1="220" x2="648" y2="220" stroke="#57606a" stroke-width="1.5" marker-end="url(#arrow)"/>
  <text x="611" y="210" text-anchor="middle" font-size="10.5" fill="#57606a">usage</text>

  <!-- Retry loop -->
  <rect x="40" y="190" width="230" height="60" rx="6" fill="#fff8f0" stroke="#d0d7de" stroke-dasharray="4 3"/>
  <text x="155" y="214" text-anchor="middle" font-size="12" fill="#57606a">on schema mismatch</text>
  <text x="155" y="235" text-anchor="middle" font-size="13" fill="#1f2328">retry: session.send(error)</text>

  <path d="M 345 210 C 300 210, 270 210, 270 210" fill="none" stroke="#57606a" stroke-width="1.5" marker-end="url(#arrow)"/>
  <path d="M 155 190 C 155 150, 300 100, 343 92" fill="none" stroke="#57606a" stroke-width="1.5" stroke-dasharray="4 3" marker-end="url(#arrow)"/>
  <text x="200" y="140" text-anchor="middle" font-size="10" fill="#57606a">re-prompt with previousError</text>

  <!-- Output -->
  <rect x="345" y="320" width="230" height="60" rx="6" fill="#dafbe1" stroke="#1a7f37"/>
  <text x="460" y="344" text-anchor="middle" font-size="12" fill="#57606a">result</text>
  <text x="460" y="365" text-anchor="middle" font-size="13" fill="#1f2328">typed, validated WeatherReport</text>

  <line x1="460" y1="250" x2="460" y2="318" stroke="#1a7f37" stroke-width="1.8" marker-end="url(#arrowGreen)"/>

  <text x="460" y="420" text-anchor="middle" font-size="11" fill="#57606a">Scenarios 1&#8211;4 above &#8212; single-shot, self-repair, and cache-fronted routing.</text>

  <!-- Scenario 5: tool-calling round trip via ToolRegistryKit -->
  <line x1="0" y1="450" x2="920" y2="450" stroke="#d0d7de" stroke-width="1"/>
  <text x="460" y="478" text-anchor="middle" font-size="14" font-weight="bold" fill="#1f2328">Scenario 5 &#8212; tool-calling round trip</text>

  <rect x="40" y="500" width="220" height="60" rx="6" fill="#f6f8fa" stroke="#d0d7de"/>
  <text x="150" y="524" text-anchor="middle" font-size="12" fill="#57606a">this demo</text>
  <text x="150" y="545" text-anchor="middle" font-size="13" fill="#1f2328">ScriptedProvider (decision)</text>

  <rect x="350" y="500" width="220" height="60" rx="6" fill="#fbefff" stroke="#8250df"/>
  <text x="460" y="524" text-anchor="middle" font-size="12" fill="#57606a">ToolRegistryKit</text>
  <text x="460" y="545" text-anchor="middle" font-size="13" fill="#1f2328">ToolRegistry.dispatch(_:)</text>

  <rect x="660" y="500" width="220" height="60" rx="6" fill="#ddf4ff" stroke="#0969da"/>
  <text x="770" y="524" text-anchor="middle" font-size="12" fill="#57606a">ProviderGatewayKit</text>
  <text x="770" y="545" text-anchor="middle" font-size="13" fill="#1f2328">final routed LLMSession turn</text>

  <line x1="260" y1="530" x2="348" y2="530" stroke="#8250df" stroke-width="1.5" marker-end="url(#arrowPurple)"/>
  <text x="304" y="520" text-anchor="middle" font-size="10" fill="#8250df">tool call + args</text>
  <line x1="570" y1="530" x2="658" y2="530" stroke="#8250df" stroke-width="1.5" marker-end="url(#arrowPurple)"/>
  <text x="614" y="520" text-anchor="middle" font-size="10" fill="#8250df">validated result</text>

  <rect x="350" y="580" width="220" height="40" rx="6" fill="#dafbe1" stroke="#1a7f37"/>
  <text x="460" y="605" text-anchor="middle" font-size="12" fill="#1f2328">typed ToolBackedAnswer</text>
  <line x1="770" y1="560" x2="460" y2="580" stroke="#1a7f37" stroke-width="1.5" marker-end="url(#arrowGreen)"/>

  <text x="460" y="633" text-anchor="middle" font-size="11" fill="#57606a">All five packages resolved from their real, tagged 1.0.0 releases &#8212; see README for the full flow.</text>
</svg>
